<?xml version="1.0" encoding="UTF-8" standalone="no"?>
<svg
   xmlns:dc="http://purl.org/dc/elements/1.1/"
   xmlns:cc="http://creativecommons.org/ns#"
   xmlns:rdf="http://www.w3.org/1999/02/22-rdf-syntax-ns#"
   xmlns:svg="http://www.w3.org/2000/svg"
   xmlns="http://www.w3.org/2000/svg"
   xmlns:sodipodi="http://sodipodi.sourceforge.net/DTD/sodipodi-0.dtd"
   xmlns:inkscape="http://www.inkscape.org/namespaces/inkscape"
   version="1.1"
   id="svg2"
   xml:space="preserve"
   width="5333.3335"
   height="5333.3335"
   viewBox="0 0 5333.3335 5333.3335"
   sodipodi:docname="noodle-3899206.ai"><metadata
     id="metadata8"><rdf:RDF><cc:Work
         rdf:about=""><dc:format>image/svg+xml</dc:format><dc:type
           rdf:resource="http://purl.org/dc/dcmitype/StillImage" /></cc:Work></rdf:RDF></metadata><defs
     id="defs6"><clipPath
       clipPathUnits="userSpaceOnUse"
       id="clipPath18"><path
         d="M 0,4000 H 4000 V 0 H 0 Z"
         id="path16" /></clipPath></defs><sodipodi:namedview
     pagecolor="#ffffff"
     bordercolor="#666666"
     borderopacity="1"
     objecttolerance="10"
     gridtolerance="10"
     guidetolerance="10"
     inkscape:pageopacity="0"
     inkscape:pageshadow="2"
     inkscape:window-width="640"
     inkscape:window-height="480"
     id="namedview4" /><g
     id="g10"
     inkscape:groupmode="layer"
     inkscape:label="noodle-3899206"
     transform="matrix(1.3333333,0,0,-1.3333333,0,5333.3333)"><g
       id="g12"><g
         id="g14"
         clip-path="url(#clipPath18)"><g
           id="g20"
           transform="translate(3564.1807,2018.4663)"><path
             d="m 0,0 c 0,-195.991 -30.768,-384.004 -87.206,-558.233 -195.304,-603.078 -698.103,-1017.956 -1296.849,-1055.775 -27.888,-1.796 -56.015,-2.695 -84.301,-2.695 -810.953,0 -1468.382,710.701 -1468.382,1616.703 0,37.714 1.135,75.137 3.38,112.217 51.632,-425.733 687.802,-762.146 1465.002,-762.146 28.286,0 56.413,0.449 84.301,1.346 598.746,18.858 1101.545,237.614 1296.849,538.374 C -41.622,-40.038 -12.782,34.65 -3.38,112.27 -1.136,75.164 0,37.74 0,0"
             style="fill:#121010;fill-opacity:1;fill-rule:nonzero;stroke:none"
             id="path22" /></g><g
           id="g24"
           transform="translate(2095.8252,3003.4092)"><path
             d="m 0,0 c -391.99,0 -760.503,-85.039 -1037.656,-239.45 -276.907,-154.274 -429.406,-359.301 -429.406,-577.312 0,-218.022 152.499,-423.059 429.406,-577.338 277.15,-154.414 645.663,-239.453 1037.656,-239.453 28.11,0 56.46,0.454 84.261,1.349 290.582,9.15 566.956,65.641 799.244,163.369 228.1,95.965 399.801,225.429 496.539,374.401 57.723,88.869 86.991,182.289 86.991,277.672 0,77.197 -19.348,153.605 -57.505,227.099 C 1274.152,-328.824 916.214,-123.171 452.041,-39.542 306.586,-13.303 154.498,0 0,0 m 0,-1636.194 c -392.435,0 -761.405,85.158 -1038.942,239.787 -135.015,75.224 -241.029,162.835 -315.098,260.402 -76.748,101.095 -115.663,208.504 -115.663,319.243 0,110.732 38.915,218.135 115.663,319.227 74.069,97.562 180.083,185.171 315.098,260.392 C -761.403,-82.515 -392.433,2.641 0,2.641 c 154.655,0 306.9,-13.317 452.511,-39.583 226.854,-40.873 435.031,-113.153 602.016,-209.026 167.368,-96.092 290.936,-214.519 357.345,-342.477 38.357,-73.875 57.804,-150.692 57.804,-228.317 0,-95.901 -29.412,-189.807 -87.419,-279.11 -97.028,-149.417 -269.138,-279.227 -497.728,-375.398 -232.586,-97.848 -509.284,-154.414 -800.186,-163.575 -27.826,-0.895 -56.204,-1.349 -84.343,-1.349"
             style="fill:#231f20;fill-opacity:1;fill-rule:nonzero;stroke:none"
             id="path26" /></g><g
           id="g28"
           transform="translate(3511.6553,2203.2373)"><path
             d="m 0,0 c 0,-90.978 -29.667,-178.244 -84.087,-259.118 -188.317,-279.941 -673.13,-483.553 -1250.458,-501.105 -26.892,-0.835 -54.013,-1.253 -81.286,-1.253 -781.944,0 -1415.857,340.927 -1415.857,761.476 0,420.524 633.913,761.451 1415.857,761.451 152.156,0 298.735,-12.905 436.097,-36.824 C -534.648,647.219 -186,454.496 -55.591,211.946 -19.405,144.665 0,73.549 0,0"
             style="fill:#bc171c;fill-opacity:1;fill-rule:nonzero;stroke:none"
             id="path30" /></g><g
           id="g32"
           transform="translate(2391.6777,2819.6143)"><path
             d="m 0,0 c 0,0 -139.745,101.194 -255.396,38.55 -115.65,-62.644 -212.026,-120.469 -390.321,-86.738 -178.294,33.732 -269.851,0 -356.589,-115.65 -86.738,-115.651 -361.408,-38.551 -467.422,-245.758 -106.013,-207.207 -173.476,-525.247 67.463,-708.36 240.939,-183.113 1382.99,-558.979 2274.463,28.912 C 1763.672,-501.153 0,0 0,0"
             style="fill:#b94c28;fill-opacity:1;fill-rule:nonzero;stroke:none"
             id="path34" /></g><g
           id="g36"
           transform="translate(1630.1016,2778.5933)"><path
             d="m 0,0 c -102.752,0 -170.925,-38.547 -236.504,-125.987 -37.68,-50.241 -109.635,-65.246 -185.813,-81.133 -103.525,-21.59 -220.861,-46.06 -281.133,-163.861 -116.046,-226.819 -159.659,-530.279 65.959,-701.748 107.556,-81.745 444.46,-228.314 890.618,-273.621 78.8,-8.004 165.703,-13.205 258.289,-13.208 334.11,-0.011 743.018,67.702 1119.451,315.945 183.193,120.809 266.091,246.828 246.386,374.56 -14.17,91.847 -81.376,186.008 -199.756,279.865 -95.241,75.514 -223.504,150.873 -381.226,223.985 C 1027.413,-40.573 762.774,35.189 760.131,35.94 l -0.895,0.255 -0.758,0.547 c -1.37,0.989 -138.435,98.489 -249.783,38.186 L 494.937,67.456 C 383.845,7.065 287.901,-45.095 114.878,-12.356 72.001,-4.245 34.095,0 0,0 m 511.421,-1370.123 c -92.998,0 -180.213,5.223 -259.362,13.262 -243.83,24.763 -440.612,78.658 -562.756,119.512 -142.754,47.747 -267.31,106.141 -333.187,156.207 -110.1,83.678 -165.925,201.216 -165.925,349.351 0,153.238 60.745,294.849 96.955,365.623 62.573,122.299 182.537,147.316 288.379,169.39 74.172,15.468 144.231,30.078 179.519,77.13 C -154.701,0.69 -60.022,31.479 116.841,-1.977 286.167,-34.015 380.574,17.31 489.891,76.737 l 13.775,7.479 c 48.632,26.345 109.267,27.921 175.342,4.551 46.119,-16.31 79.351,-39.012 84.893,-42.919 17.123,-4.934 274.9,-80.068 536.702,-201.414 158.5,-73.467 287.5,-149.271 383.412,-225.308 120.558,-95.575 189.086,-191.991 203.678,-286.566 20.391,-132.176 -64.06,-261.706 -251.01,-384.993 -378.497,-249.603 -789.535,-317.69 -1125.262,-317.69"
             style="fill:#e99163;fill-opacity:1;fill-rule:nonzero;stroke:none"
             id="path38" /></g><g
           id="g40"
           transform="translate(822.4121,1979.3262)"><path
             d="m 0,0 c 0,0 7.599,-98.783 129.178,-144.376 0,0 41.793,-94.983 174.771,-117.78 0,0 106.382,-106.382 254.557,-94.984 0,0 91.185,-56.99 148.175,-53.191 56.991,3.8 87.385,-83.586 368.538,-117.78 281.153,-34.195 322.946,-3.799 322.946,-3.799 l -64.589,398.932 z"
             style="fill:#8b391e;fill-opacity:1;fill-rule:nonzero;stroke:none"
             id="path42" /></g><g
           id="g44"
           transform="translate(653.9741,2338.1484)"><path
             d="m 0,0 c -16.736,-49.683 -25.211,-100.571 -25.211,-151.501 0,-13.407 0.588,-26.898 1.753,-40.276 C -19.008,-127.399 -11.136,-63.031 0,0 m -24.463,-207.623 c -2.249,18.519 -3.389,37.402 -3.389,56.122 0,56.504 10.371,112.95 30.824,167.77 L 5.507,15.566 C -8.1,-57.539 -17.3,-132.604 -21.834,-207.544 Z"
             style="fill:#000000;fill-opacity:1;fill-rule:nonzero;stroke:none"
             id="path46" /></g><g
           id="g48"
           transform="translate(1385.0049,1647.3906)"><path
             d="m 0,0 c -135.594,0 -194.876,63.991 -218.145,102.134 -2.123,3.476 -2.056,7.866 0.173,11.275 1.966,3.013 5.307,4.79 8.842,4.79 0.468,0 0.941,-0.031 1.412,-0.095 14.847,-2 30.564,-3.01 46.718,-3.01 60.837,0 131.136,14.267 208.948,42.405 1.178,0.426 2.392,0.63 3.591,0.63 3.427,0 6.735,-1.671 8.744,-4.632 L 141.495,33.808 c 1.947,-2.871 2.362,-6.516 1.107,-9.752 -1.253,-3.235 -4.016,-5.646 -7.39,-6.453 C 86.422,5.922 40.932,0 0,0"
             style="fill:#f6a7bd;fill-opacity:1;fill-rule:nonzero;stroke:none"
             id="path50" /></g><g
           id="g52"
           transform="translate(1436.541,1816.0869)"><path
             d="m 0,0 c -2.398,0 -4.825,-0.41 -7.181,-1.262 -76.654,-27.721 -145.747,-41.778 -205.358,-41.778 -15.683,0 -30.926,0.981 -45.307,2.917 -0.944,0.127 -1.886,0.189 -2.822,0.189 -7.071,0 -13.754,-3.553 -17.687,-9.579 -4.455,-6.822 -4.589,-15.597 -0.345,-22.553 24.423,-40.034 86.412,-107.193 227.166,-107.193 41.758,0 88.076,6.019 137.669,17.89 6.748,1.615 12.273,6.44 14.781,12.91 2.508,6.47 1.68,13.759 -2.216,19.5 L 17.489,-9.268 C 13.47,-3.345 6.854,0 0,0 m 0.005,-21.13 81.211,-119.691 c -51.064,-12.224 -95.008,-17.31 -132.75,-17.31 -130.244,0 -186.831,60.518 -209.13,97.068 14.941,-2.01 30.966,-3.105 48.125,-3.105 57.214,0 127.151,12.155 212.544,43.038"
             style="fill:#231f20;fill-opacity:1;fill-rule:nonzero;stroke:none"
             id="path54" /></g><g
           id="g56"
           transform="translate(1224.0186,1741.3506)"><path
             d="m 0,0 c -136.442,0 -203.944,66.064 -236.546,121.484 -2.177,3.704 -1.897,8.355 0.71,11.768 2.028,2.659 5.155,4.153 8.396,4.153 0.92,0 1.85,-0.119 2.767,-0.368 32.815,-8.904 66.315,-14.134 99.569,-15.539 4.153,-0.177 8.342,-0.268 12.449,-0.268 49.807,0 96.539,13 139.012,38.656 -0.991,18.756 -4.188,41.311 -9.523,67.16 -0.573,2.777 -0.005,5.67 1.576,8.024 1.581,2.356 4.043,3.975 6.831,4.496 l 112.692,21.05 c 0.651,0.121 1.302,0.18 1.946,0.18 4.35,0 8.349,-2.698 9.902,-6.904 L 222.437,57.268 c 0.976,-2.642 0.857,-5.562 -0.33,-8.115 -1.185,-2.55 -3.339,-4.526 -5.987,-5.483 C 136.002,14.693 63.289,0 0,0"
             style="fill:#f6a7bd;fill-opacity:1;fill-rule:nonzero;stroke:none"
             id="path58" /></g><g
           id="g60"
           transform="translate(1363.9033,2012.7114)"><path
             d="m 0,0 c -1.287,0 -2.587,-0.118 -3.891,-0.361 l -112.692,-21.05 c -5.577,-1.042 -10.5,-4.281 -13.662,-8.991 -3.162,-4.709 -4.298,-10.493 -3.151,-16.048 4.634,-22.458 7.619,-42.308 8.907,-59.216 -39.327,-22.502 -82.344,-33.899 -128.05,-33.899 -3.958,0 -7.995,0.086 -11.999,0.256 -32.476,1.373 -65.195,6.48 -97.254,15.181 -1.833,0.497 -3.693,0.738 -5.533,0.738 -6.484,0.001 -12.735,-2.99 -16.794,-8.309 -5.212,-6.827 -5.772,-16.13 -1.418,-23.533 20.27,-34.457 47.555,-62.63 81.099,-83.734 45.304,-28.504 100.667,-42.957 164.55,-42.957 64.519,0 138.442,14.904 219.717,44.299 5.293,1.916 9.604,5.863 11.975,10.967 2.372,5.106 2.608,10.946 0.657,16.225 L 19.807,-13.807 C 16.698,-5.395 8.7,0 0,0 m -0.012,-21.13 72.655,-196.624 c -85.367,-30.876 -155.33,-43.041 -212.531,-43.041 -134.45,0 -198.534,67.14 -227.437,116.276 33.673,-9.138 68.164,-14.473 101.89,-15.899 4.337,-0.184 8.637,-0.276 12.896,-0.276 56.802,0 106.726,16.189 149.818,43.483 -0.608,21.471 -4.173,46.878 -9.983,75.032 L -0.012,-21.13"
             style="fill:#231f20;fill-opacity:1;fill-rule:nonzero;stroke:none"
             id="path62" /></g><g
           id="g64"
           transform="translate(1111.3647,1841.4541)"><path
             d="m 0,0 c -4.406,0 -8.896,0.096 -13.346,0.284 -148.946,6.347 -329.277,90.171 -373.231,259.216 -17.329,66.673 -12.795,137.388 13.111,204.5 24.952,64.637 69.279,122.228 124.819,162.164 1.121,0.806 117.162,80.631 167.894,80.631 7.636,0 13.965,-1.75 18.812,-5.199 1.494,-1.064 2.687,-2.5 3.458,-4.163 8.724,-18.816 213.707,-462.893 218.861,-643.085 0.105,-3.726 -1.759,-7.233 -4.908,-9.227 C 108.201,15.181 55.892,0 0,0"
             style="fill:#f6a7bd;fill-opacity:1;fill-rule:nonzero;stroke:none"
             id="path66" /></g><g
           id="g68"
           transform="translate(1030.6196,2558.813)"><path
             d="M 0,0 V -21.128 L -0.001,0 h -0.012 c -54.77,-0.011 -172.908,-81.792 -174.057,-82.618 -57.186,-41.12 -102.825,-100.406 -128.506,-166.936 -26.708,-69.188 -31.369,-142.137 -13.481,-210.961 20.432,-78.577 71.798,-145.92 148.546,-194.751 67.753,-43.109 151.019,-68.807 234.46,-72.362 4.6,-0.196 9.241,-0.295 13.796,-0.295 57.926,0 112.136,15.733 161.123,46.761 6.298,3.99 10.027,11.001 9.814,18.454 -5.214,182.336 -211.075,628.329 -219.836,647.225 -1.543,3.329 -3.927,6.198 -6.916,8.326 C 18.258,-2.408 9.871,0 0,0 m -0.008,-21.128 c 5.23,0.001 9.543,-1.005 12.686,-3.242 0,0 212.735,-458.851 217.884,-638.943 -43.088,-27.293 -93.02,-43.482 -149.817,-43.482 -4.263,0 -8.555,0.09 -12.896,0.275 -153.707,6.55 -322.521,93.889 -363.457,251.32 -34.624,133.213 23.98,276.409 133.873,355.429 18.234,13.111 119.535,78.634 161.727,78.643"
             style="fill:#231f20;fill-opacity:1;fill-rule:nonzero;stroke:none"
             id="path70" /></g><g
           id="g72"
           transform="translate(1144.771,2000.9072)"><path
             d="m 0,0 c -161.564,0 -265.825,70.239 -286.048,192.706 -20.467,123.953 63.31,245.065 186.752,269.979 0.7,0.142 1.4,0.21 2.094,0.21 3.963,0 7.673,-2.239 9.474,-5.901 C -82.275,445.913 45.857,183.648 50.138,12.319 50.28,6.689 45.979,1.94 40.365,1.521 26.851,0.512 13.271,0 0,0"
             style="fill:#fef3f7;fill-opacity:1;fill-rule:nonzero;stroke:none"
             id="path74" /></g><g
           id="g76"
           transform="translate(1047.5718,2474.3662)"><path
             d="m 0,0 c -1.386,0 -2.787,-0.137 -4.187,-0.419 -128.953,-26.027 -216.467,-152.556 -195.084,-282.055 6.034,-36.539 19.198,-68.979 39.128,-96.417 18.251,-25.127 42.273,-46.209 71.398,-62.659 49.193,-27.785 113.492,-42.472 185.943,-42.472 13.533,0 27.379,0.521 41.152,1.548 11.231,0.839 19.831,10.339 19.549,21.598 -1.833,73.298 -25.842,171.28 -71.363,291.224 C 52.906,-81.041 20.321,-14.587 18.951,-11.802 15.346,-4.477 7.926,0 0,0 m -0.007,-21.13 c 0,0 132.51,-269.293 136.784,-440.274 -13.032,-0.972 -26.283,-1.49 -39.579,-1.49 -123.624,0 -252.641,44.687 -275.623,183.863 -19.635,118.907 61.302,234.263 178.418,257.901"
             style="fill:#231f20;fill-opacity:1;fill-rule:nonzero;stroke:none"
             id="path78" /></g><g
           id="g80"
           transform="translate(2343.8398,1406.459)"><path
             d="m 0,0 c -125.449,0 -169.325,17.771 -215.775,36.583 -27.483,11.131 -55.898,22.639 -103.779,31.743 -18.484,3.539 -38.513,6.444 -61.244,8.88 -103.179,11.057 -210.134,23.7 -284.424,45.774 -80.924,24.045 -120.589,57.933 -124.823,106.642 -1.092,12.614 7.18,28.995 26.026,51.557 136.64,163.535 799.138,612.334 827.274,631.359 0.805,0.546 1.684,0.978 2.61,1.282 3.856,1.272 95.673,31.125 203.222,31.125 144.55,0 246.632,-55.017 295.21,-159.1 5.037,-10.807 9.553,-22.232 13.424,-33.958 C 620.715,621.604 592.187,436.842 505.046,281.182 411.264,113.722 268.969,12.592 114.649,3.72 71.687,1.251 33.113,0 0,0"
             style="fill:#ffcb1f;fill-opacity:1;fill-rule:nonzero;stroke:none"
             id="path82" /></g><g
           id="g84"
           transform="translate(2612.9482,2361.9678)"><path
             d="M 0,0 V -21.128 L -0.009,0 c -109.239,-0.004 -202.618,-30.362 -206.54,-31.654 -1.85,-0.61 -3.608,-1.473 -5.222,-2.565 -28.186,-19.059 -691.879,-468.673 -829.461,-633.338 -21.039,-25.183 -29.812,-43.452 -28.447,-59.234 2.486,-28.6 16.52,-53.227 41.711,-73.205 21.34,-16.925 50.985,-30.879 90.628,-42.658 75.147,-22.329 182.645,-35.043 286.31,-46.152 22.445,-2.408 42.192,-5.269 60.371,-8.749 46.879,-8.915 74.804,-20.224 101.809,-31.162 47.433,-19.21 92.235,-37.355 219.744,-37.355 33.781,0 71.479,1.221 115.252,3.734 83.616,4.808 162.493,34.788 234.441,89.108 63.548,47.976 120.454,114.971 164.567,193.741 88.523,158.126 117.369,346.213 73.493,479.176 -4.001,12.114 -8.67,23.923 -13.88,35.105 -28.265,60.561 -73.525,105.216 -134.528,132.736 C 122.478,-10.925 65.201,0 0,0 m -0.021,-21.128 c 107.116,0.004 228.504,-30.591 285.636,-153.004 4.886,-10.485 9.218,-21.446 12.968,-32.802 42.6,-129.093 12.545,-311.456 -71.862,-462.232 -81.793,-146.049 -214.583,-262.465 -381.786,-272.078 -44.489,-2.554 -82.022,-3.7 -114.041,-3.7 -196.765,0 -186.431,43.201 -317.581,68.14 -17.801,3.408 -38.217,6.445 -62.092,9.007 -228.474,24.482 -391.69,48.964 -399.85,142.826 -0.846,9.772 7.658,24.773 23.61,43.867 137.254,164.272 825.082,629.383 825.082,629.383 0,0 92.825,30.589 199.916,30.593"
             style="fill:#231f20;fill-opacity:1;fill-rule:nonzero;stroke:none"
             id="path86" /></g><g
           id="g88"
           transform="translate(2180.1221,1379.0557)"><path
             d="m 0,0 c -5.53,0 -10.149,4.279 -10.533,9.832 -0.395,5.666 3.762,10.629 9.408,11.237 176.157,18.928 595.582,101.278 685.506,456.208 9.666,38.139 13.507,76.183 11.418,113.076 -8.927,156.665 -128.294,274.808 -277.656,274.808 -42.538,0 -84.872,-9.553 -125.823,-28.395 -1.428,-0.657 -2.929,-0.97 -4.41,-0.97 -3.846,0 -7.544,2.112 -9.406,5.751 l -103.132,201.322 c -24.138,47.153 -49.611,96.917 -72.958,142.482 -46.186,90.126 -86.529,168.91 -86.666,169.181 -2.917,5.696 -3.185,12.354 -0.748,19.692 16.779,50.528 183.313,147.719 196.808,154.342 44.116,21.622 92.916,37.95 145.047,48.53 48.418,9.874 99.889,14.882 152.981,14.882 185.096,0 378.978,-60.42 518.636,-161.623 131.187,-95.106 229.052,-236.451 275.572,-397.998 10.535,-36.544 18.435,-74.199 23.48,-111.916 18.257,-136.881 -0.513,-275.067 -52.859,-389.107 -0.214,-0.467 -0.465,-0.917 -0.743,-1.348 C 1203.045,420.854 1087.957,319.466 941.099,236.782 847.03,183.791 740.448,138.406 624.315,101.892 431.756,41.264 221.817,6.984 0.338,0.006 0.224,0.003 0.11,0 0,0"
             style="fill:#ffcb1f;fill-opacity:1;fill-rule:nonzero;stroke:none"
             id="path90" /></g><g
           id="g92"
           transform="translate(2689.9736,2981.5972)"><path
             d="M 0,0 V -21.128 L -0.007,0 c -53.811,-0.001 -105.995,-5.08 -155.108,-15.095 -52.999,-10.759 -102.656,-27.377 -147.572,-49.392 -9.24,-4.534 -53.843,-30.558 -99.598,-62.325 -81.532,-56.605 -97.6,-83.141 -102.593,-98.176 -4.189,-12.614 -1.54,-22.153 1.421,-27.934 2.1,-4.107 42.072,-82.159 86.617,-169.087 22.812,-44.521 47.656,-93.053 71.3,-139.239 l 11.936,-23.316 92.853,-181.248 c 3.729,-7.278 11.122,-11.499 18.816,-11.499 2.959,0 5.961,0.624 8.819,1.938 39.562,18.203 80.409,27.431 121.405,27.429 143.676,-0.009 258.508,-113.869 267.109,-264.848 2.03,-35.811 -1.709,-72.781 -11.108,-109.877 -88.297,-348.501 -502.437,-429.606 -676.394,-448.3 -11.294,-1.214 -19.607,-11.139 -18.821,-22.47 0.771,-11.105 10.012,-19.666 21.067,-19.666 0.224,0 0.45,0 0.676,0.011 111.406,3.511 221.814,14.191 328.158,31.747 103.736,17.125 204.221,40.885 298.664,70.62 116.831,36.737 224.091,82.415 318.795,135.763 73.643,41.463 139.45,87.469 195.587,136.74 57.175,50.181 104.583,103.984 140.909,159.915 0.559,0.861 1.054,1.762 1.482,2.694 53.167,115.83 72.249,256.077 53.731,394.907 -5.114,38.245 -13.122,76.414 -23.803,113.455 -47.165,163.793 -146.434,307.137 -279.517,403.62 C 383.424,-61.17 187.229,0 0,0 m -0.016,-21.128 c 183.823,0.003 375.701,-60.526 512.439,-159.611 132.55,-96.096 226.713,-236.426 271.617,-392.368 10.408,-36.094 18.163,-73.012 23.161,-110.394 17.003,-127.475 2.241,-265.151 -51.989,-383.3 -71.312,-109.801 -184.643,-208.396 -329.147,-289.755 -92.978,-52.376 -198.837,-97.564 -314.77,-134.018 -185.338,-58.353 -396.31,-94.318 -621.143,-101.403 298.952,32.127 617.897,161.302 694.619,464.118 9.609,37.923 13.937,77.16 11.722,116.268 -9.65,169.377 -138.633,284.765 -288.202,284.775 -42.51,0.002 -86.666,-9.315 -130.238,-29.362 0,0 -42.251,82.467 -92.85,181.241 -27.077,52.891 -56.55,110.472 -83.24,162.564 -47.764,93.21 -86.537,168.927 -86.614,169.081 -18.549,36.223 171.735,150.25 191.263,159.833 44.364,21.744 92.36,37.485 142.494,47.661 48.737,9.939 99.5,14.669 150.878,14.67"
             style="fill:#231f20;fill-opacity:1;fill-rule:nonzero;stroke:none"
             id="path94" /></g><g
           id="g96"
           transform="translate(2839.6689,1692.8018)"><path
             d="m 0,0 c -71.176,-33.462 -134.243,-43.709 -150.75,-43.709 -47.538,0 -78.095,-30.583 -78.095,-30.583 -135.828,-193.534 -346.37,-139.208 -451.615,-125.634 -50.998,6.603 -98.034,0.423 -132.949,-7.711 -17.8,3.407 -38.216,6.444 -62.09,9.006 -228.475,24.482 -391.69,48.964 -399.851,142.826 -0.845,9.772 7.659,24.773 23.611,43.867 L 71.862,462.232 232.938,519.938 C 296.111,207.532 133.688,62.83 0,0"
             style="fill:#fbae17;fill-opacity:1;fill-rule:nonzero;stroke:none"
             id="path98" /></g><g
           id="g100"
           transform="translate(3116.0449,1614.4785)"><path
             d="m 0,0 c -3.002,0 -5.958,1.279 -8.026,3.688 -3.281,3.828 -3.4,9.44 -0.287,13.404 133.294,169.639 196.491,339.792 187.837,505.73 -12.817,245.947 -169.822,473.713 -390.687,566.77 -68.059,28.678 -143.222,43.836 -217.364,43.836 -160.473,0 -301.543,-67.392 -387.038,-184.898 -1.997,-2.744 -5.18,-4.349 -8.54,-4.349 -0.274,0 -0.549,0.01 -0.823,0.032 -3.66,0.286 -6.907,2.448 -8.581,5.715 -46.112,89.981 -86.512,168.873 -86.661,169.17 -2.922,5.707 -3.19,12.365 -0.753,19.703 16.779,50.529 183.314,147.719 196.808,154.342 44.116,21.623 92.916,37.948 145.048,48.53 48.418,9.874 99.888,14.882 152.98,14.882 185.096,0 378.979,-60.42 518.636,-161.622 131.187,-95.107 229.053,-236.453 275.572,-397.999 10.535,-36.545 18.438,-74.2 23.481,-111.916 18.256,-136.881 -0.514,-275.067 -52.86,-389.107 -0.214,-0.467 -0.465,-0.917 -0.743,-1.348 C 267.122,185.432 152.034,84.043 5.179,1.359 3.551,0.443 1.767,0 0,0"
             style="fill:#ffcb1f;fill-opacity:1;fill-rule:nonzero;stroke:none"
             id="path102" /></g><g
           id="g104"
           transform="translate(2689.9746,2981.5972)"><path
             d="M 0,0 V -21.128 L -0.008,0 c -53.811,-0.001 -105.995,-5.08 -155.108,-15.096 -52.998,-10.757 -102.655,-27.376 -147.571,-49.391 -9.242,-4.534 -53.843,-30.558 -99.599,-62.325 -81.532,-56.605 -97.6,-83.141 -102.593,-98.176 -4.189,-12.614 -1.54,-22.153 1.421,-27.934 2.112,-4.132 42.076,-82.166 86.617,-169.086 3.348,-6.533 9.845,-10.859 17.162,-11.429 0.55,-0.043 1.099,-0.064 1.645,-0.064 6.722,0 13.087,3.208 17.081,8.697 83.488,114.746 221.444,180.554 378.495,180.55 72.752,-0.002 146.496,-14.874 213.262,-43.008 217.217,-91.518 371.631,-315.593 384.239,-557.584 8.519,-163.311 -53.923,-331.083 -185.592,-498.656 -6.229,-7.928 -5.989,-19.153 0.574,-26.807 4.131,-4.817 10.044,-7.376 16.049,-7.376 3.534,0 7.101,0.886 10.356,2.719 73.647,41.465 139.454,87.471 195.591,136.742 57.175,50.181 104.583,103.984 140.909,159.915 0.559,0.861 1.054,1.762 1.482,2.694 53.167,115.83 72.249,256.077 53.731,394.907 -5.114,38.244 -13.122,76.414 -23.803,113.455 -47.165,163.793 -146.434,307.137 -279.517,403.62 C 383.423,-61.17 187.229,0 0,0 m -0.017,-21.128 c 183.823,0.003 375.702,-60.527 512.439,-159.611 132.55,-96.096 226.713,-236.426 271.617,-392.368 10.408,-36.095 18.163,-73.013 23.161,-110.394 17.003,-127.475 2.241,-265.152 -51.989,-383.3 -71.312,-109.801 -184.643,-208.396 -329.147,-289.755 110.163,140.202 200.306,316.755 190.079,512.81 -12.727,244.257 -169.726,480.142 -397.134,575.954 -70.556,29.731 -146.476,44.664 -221.466,44.666 -153.681,0.003 -303.504,-62.698 -395.581,-189.247 -47.764,93.21 -86.537,168.927 -86.614,169.081 -18.55,36.223 171.735,150.25 191.263,159.833 44.364,21.744 92.36,37.485 142.494,47.661 48.737,9.939 99.5,14.669 150.878,14.67"
             style="fill:#231f20;fill-opacity:1;fill-rule:nonzero;stroke:none"
             id="path106" /></g><g
           id="g108"
           transform="translate(2801.2676,1480.457)"><path
             d="m 0,0 c -4.011,0 -7.799,2.298 -9.573,6.103 -2.24,4.798 -0.575,10.517 3.888,13.367 C 313.9,223.483 303.54,508.106 284.251,621.008 252.345,807.756 131.93,966.042 -2.071,997.378 c -46.234,10.808 -91.669,16.288 -135.048,16.288 -135.304,0 -228.219,-52.035 -282.342,-95.685 -1.893,-1.529 -4.24,-2.342 -6.631,-2.342 -0.732,0 -1.468,0.076 -2.197,0.231 -3.11,0.662 -5.757,2.689 -7.206,5.52 l -10.26,20.043 c -24.143,47.163 -49.625,96.941 -72.976,142.516 -1.819,3.547 -1.486,7.812 0.859,11.033 89.516,123.033 236.814,193.596 404.122,193.596 76.936,0 154.937,-15.731 225.568,-45.495 112.535,-47.413 210.634,-129.052 283.696,-236.09 72.03,-105.529 113.487,-226.228 119.885,-349.05 8.932,-171.191 -55.776,-346.106 -192.32,-519.885 -0.856,-1.088 -1.916,-1.996 -3.123,-2.677 C 225.885,82.39 119.3,37.005 3.17,0.49 2.117,0.16 1.053,0 0,0"
             style="fill:#ffcb1f;fill-opacity:1;fill-rule:nonzero;stroke:none"
             id="path110" /></g><g
           id="g112"
           transform="translate(2687.5439,2779.5991)"><path
             d="M 0,0 V -21.128 L -0.009,0 c -80.761,-0.004 -160.206,-16.99 -229.766,-49.122 -74.594,-34.457 -136.136,-84.528 -182.916,-148.822 -4.688,-6.443 -5.353,-14.974 -1.719,-22.065 22.878,-44.654 47.802,-93.34 71.508,-139.648 l 11.728,-22.91 c 2.899,-5.661 8.193,-9.716 14.413,-11.038 1.457,-0.31 2.93,-0.462 4.393,-0.462 4.783,0 9.474,1.625 13.265,4.683 52.797,42.583 143.488,93.344 275.707,93.343 42.572,0 87.201,-5.386 132.647,-16.009 61.727,-14.435 123.562,-58.578 174.116,-124.297 51.878,-67.44 88.881,-153.94 104.194,-243.567 18.933,-110.824 29.044,-390.246 -285.206,-590.853 -8.93,-5.702 -12.257,-17.137 -7.779,-26.739 3.549,-7.608 11.127,-12.202 19.148,-12.202 2.104,0 4.238,0.316 6.339,0.977 116.836,36.738 224.098,82.417 318.802,135.765 2.411,1.358 4.532,3.177 6.243,5.354 62.36,79.364 110.521,160.3 143.145,240.558 39.026,96.005 56.326,192.366 51.42,286.407 -3.244,62.26 -15.55,124.63 -36.575,185.375 -20.666,59.707 -49.31,116.593 -85.135,169.079 -74.209,108.72 -173.908,191.665 -288.32,239.87 C 157.726,-16.019 78.316,0 0,0 m -0.026,-21.128 c 75.004,0.003 150.896,-14.929 221.464,-44.666 227.41,-95.812 384.409,-331.697 397.135,-575.954 10.228,-196.055 -79.916,-372.609 -190.078,-512.81 -92.978,-52.376 -198.838,-97.564 -314.77,-134.018 511.083,326.261 281.253,931.404 0.335,997.099 -49.817,11.645 -95.623,16.564 -137.455,16.564 -140.498,0.002 -236.225,-55.483 -288.972,-98.025 -27.077,52.891 -56.55,110.47 -83.24,162.563 92.068,126.538 241.915,189.239 395.581,189.247"
             style="fill:#231f20;fill-opacity:1;fill-rule:nonzero;stroke:none"
             id="path114" /></g><g
           id="g116"
           transform="translate(2615.75,2927.2676)"><path
             d="m 0,0 c 14.555,1.616 28.57,2.428 42.849,3.036 14.215,0.558 28.431,0.78 42.644,0.666 28.426,-0.206 56.843,-1.65 85.169,-4.327 56.641,-5.34 112.977,-15.582 167.899,-31.577 54.875,-16.027 108.385,-37.875 158.352,-66.643 24.969,-14.376 49.036,-30.451 71.894,-48.171 22.769,-17.822 44.475,-37.13 64.488,-58.125 4.94,-5.304 10.003,-10.505 14.732,-16.004 l 7.202,-8.158 6.954,-8.37 c 9.295,-11.162 18.023,-22.782 26.466,-34.361 16.806,-23.351 32.524,-47.519 46.868,-72.502 28.766,-49.922 52.366,-102.855 70.608,-157.576 18.228,-54.736 31.127,-111.237 38.707,-168.5 3.796,-28.637 6.236,-57.47 7.244,-86.44 0.489,-14.489 0.635,-29.008 0.326,-43.593 -0.152,-7.293 -0.415,-14.602 -0.812,-21.954 -0.208,-3.681 -0.437,-7.367 -0.724,-11.09 l -0.47,-5.632 -0.279,-2.883 -0.352,-3.192 c -1.6,-14.498 -14.65,-24.955 -29.149,-23.356 -14.499,1.6 -24.956,14.65 -23.356,29.149 0.012,0.114 0.025,0.228 0.04,0.341 l 0.122,0.955 0.567,4.402 0.533,4.867 0.905,9.938 c 0.532,6.678 0.949,13.415 1.263,20.175 0.635,13.522 0.849,27.135 0.739,40.762 -0.249,27.26 -1.854,54.591 -4.754,81.798 -5.788,54.42 -16.654,108.386 -32.635,160.815 -15.997,52.422 -37.132,103.312 -63.308,151.554 -13.048,24.143 -27.441,47.564 -42.914,70.27 -7.839,11.345 -15.731,22.432 -24.166,33.1 l -6.318,8.022 -6.563,7.823 c -4.303,5.281 -8.936,10.274 -13.446,15.38 -18.289,20.203 -38.253,38.893 -59.324,56.283 -21.16,17.287 -43.577,33.114 -66.991,47.406 -46.849,28.597 -97.656,50.928 -150.307,67.778 -52.69,16.821 -107.258,28.22 -162.444,34.849 -27.597,3.323 -55.363,5.447 -83.17,6.361 -13.903,0.468 -27.817,0.605 -41.713,0.416 -13.827,-0.225 -27.923,-0.708 -41.358,-1.852 l -0.235,-0.02 c -5.026,-0.428 -9.448,3.299 -9.877,8.326 C -8.515,-4.91 -4.902,-0.548 0,0"
             style="fill:#ffe079;fill-opacity:1;fill-rule:nonzero;stroke:none"
             id="path118" /></g><g
           id="g120"
           transform="translate(358.1021,2673.9336)"><path
             d="m 0,0 c -7.719,0 -15.008,3.813 -19.499,10.203 -4.546,6.469 -5.607,14.474 -2.913,21.964 23.342,64.86 64.785,112.262 123.18,140.89 42.155,20.667 92.02,31.145 148.21,31.145 48.196,0 82.767,-7.894 84.215,-8.231 4.381,-1.016 7.637,-4.694 8.115,-9.165 C 347.274,131.133 335.81,86.781 307.235,54.984 277.272,21.642 229.85,4.017 170.106,4.016 h -0.016 c -14.342,0 -29.297,1.048 -44.449,3.114 C 110.109,9.248 94.634,10.322 79.648,10.322 46.936,10.322 21.852,5.206 6.569,0.913 4.41,0.307 2.2,0 0,0"
             style="fill:#ef4136;fill-opacity:1;fill-rule:nonzero;stroke:none"
             id="path122" /></g><g
           id="g124"
           transform="translate(607.0796,2888.6992)"><path
             d="m 0,0 v 0 c -57.813,0.002 -109.244,-10.839 -152.861,-32.223 -60.944,-29.878 -104.167,-79.268 -128.469,-146.799 -3.818,-10.612 -2.244,-22.431 4.212,-31.616 6.466,-9.2 16.986,-14.692 28.14,-14.692 3.166,0 6.338,0.44 9.427,1.307 14.641,4.112 38.71,9.015 70.223,9.016 14.512,0 29.503,-1.042 44.564,-3.096 15.629,-2.131 31.064,-3.211 45.878,-3.211 62.839,0 112.98,18.837 145.005,54.476 30.66,34.121 43.013,81.225 36.715,140.003 -0.958,8.942 -7.471,16.298 -16.231,18.331 C 85.106,-8.157 49.392,-0.002 0,0 m 0,-21.128 c 47.541,-0.002 81.827,-7.958 81.827,-7.958 13.302,-124.153 -66.021,-171.1 -160.713,-171.1 -14.081,0 -28.517,1.04 -43.023,3.018 -17.136,2.336 -32.973,3.289 -47.419,3.289 -33.071,-0.001 -58.818,-4.995 -75.937,-9.803 -1.261,-0.354 -2.505,-0.52 -3.713,-0.52 -8.872,0 -15.732,8.966 -12.471,18.026 C -211.11,-46.291 -84.568,-21.125 0,-21.128"
             style="fill:#231f20;fill-opacity:1;fill-rule:nonzero;stroke:none"
             id="path126" /></g><g
           id="g128"
           transform="translate(668.0405,2772.4629)"><path
             d="m 0,0 c -120.479,0.005 -208.491,32.938 -261.593,97.883 -72.89,89.149 -61.102,214.33 -47.589,281.016 1.878,9.269 9.819,15.745 19.313,15.745 7.681,0 14.468,-4.341 17.712,-11.327 16.522,-35.578 57.694,-66.484 89.323,-86.148 17.889,-11.12 37.486,-20.555 59.913,-28.845 C -12.661,227.571 21.997,158.766 31.657,108.221 42.108,53.536 26.383,9.029 25.708,7.162 24.227,3.06 20.377,0.29 16.018,0.188 10.642,0.063 5.261,0 0.028,0 Z"
             style="fill:#ef4136;fill-opacity:1;fill-rule:nonzero;stroke:none"
             id="path130" /></g><g
           id="g132"
           transform="translate(378.1714,3177.6694)"><path
             d="m 0,0 c -14.579,0 -26.778,-9.955 -29.667,-24.209 -13.885,-68.522 -25.884,-197.291 49.771,-289.813 55.205,-67.516 145.967,-101.749 269.765,-101.749 5.333,0 10.805,0.064 16.264,0.191 8.72,0.203 16.418,5.743 19.381,13.947 0.715,1.979 17.377,49.132 6.388,106.631 -10.17,53.216 -46.407,125.566 -161.291,168.028 -21.751,8.04 -40.722,17.169 -57.998,27.908 -42.984,26.722 -73.284,55.711 -85.32,81.627 C 22.297,-6.682 11.839,0 0,0 m 0,-21.128 c 3.241,0 6.487,-1.671 8.13,-5.21 17.654,-38.013 60.657,-70.361 93.328,-90.671 19.481,-12.111 40.312,-21.829 61.828,-29.783 204.496,-75.583 142.356,-247.665 142.356,-247.665 -5.352,-0.125 -10.59,-0.186 -15.773,-0.186 -341.39,0 -318.891,267.231 -298.828,366.238 0.958,4.726 4.955,7.277 8.959,7.277"
             style="fill:#231f20;fill-opacity:1;fill-rule:nonzero;stroke:none"
             id="path134" /></g><g
           id="g136"
           transform="translate(1882.3374,1526.0605)"><path
             d="m 0,0 c -7.343,0 -14.811,0.232 -22.195,0.694 -49.763,3.077 -99.607,19.563 -144.137,47.67 -24.314,15.359 -62.906,33.663 -108.685,33.663 -6.088,0 -12.232,-0.33 -18.26,-0.977 -9.167,-0.993 -18.265,-1.496 -27.036,-1.496 -16.449,0 -32.346,1.766 -47.252,5.251 -73.924,17.354 -116.516,65.716 -119.941,136.173 -0.266,4.126 -7.784,104.633 -104.028,132.858 -5.738,1.169 -52.622,11.44 -96.965,42.814 -43.477,30.763 -92.187,88.065 -77.345,186.362 0.099,0.661 0.262,1.311 0.485,1.942 0.148,0.421 15.05,43.583 8.221,85.858 -4.684,29.098 -18.512,50.824 -41.098,64.577 -0.664,0.407 -15.538,9.633 -34.269,28.062 -30.913,30.418 -82.01,96.388 -76.903,196.452 0.625,11.984 2.033,24.228 4.186,36.425 -0.621,9.403 -6.866,73.318 -61.965,80.005 -10.257,1.249 -18.094,2.724 -25.411,4.782 -23.247,6.537 -67.15,23.141 -99.976,60.892 -10.325,11.887 -18.922,26.498 -25.555,43.432 -6.69,17.043 -21.653,37.368 -54.921,37.368 -0.679,0 -16.83,0.094 -35.952,8.273 -10.643,4.586 -20.187,10.747 -28.394,18.326 -6.267,5.765 -11.843,12.453 -16.56,19.863 -5.504,8.629 -8.746,17.634 -9.632,26.757 -1.889,19.944 6.663,36.502 24.082,46.648 6.325,3.691 13.135,5.489 20.812,5.489 0.731,0 1.467,-0.017 2.207,-0.049 4.019,-0.139 8.452,-0.797 13.864,-2.065 0.087,-0.02 0.26,-0.064 0.26,-0.064 4.173,-0.998 8.453,-2.258 12.091,-3.358 1.076,-0.339 2.054,-0.641 3.057,-0.941 13.986,-4.255 29.785,-9.06 49.237,-9.06 14.755,0 29.617,2.728 45.434,8.34 6.861,2.436 13.455,4.854 19.838,7.194 33.572,12.307 62.565,22.935 94.845,22.935 35.648,0 71.456,-12.764 116.105,-41.386 0.728,-0.466 1.396,-1.022 1.989,-1.652 0.898,-0.934 23.234,-23.737 62.441,-23.737 11.671,0 23.8,2.072 36.052,6.156 15.116,5.04 31.34,7.596 48.22,7.596 71.725,0 135.91,-43.33 163.52,-110.39 0.053,-0.128 0.102,-0.255 0.15,-0.385 0.18,-0.485 19.36,-50.871 66.915,-70.147 9.034,-3.658 18.673,-6.018 28.644,-7.016 38.547,-3.862 99.073,-24.439 153.348,-70.604 2.673,-2.274 4.043,-5.729 3.653,-9.217 -6.517,-58.434 14.811,-102.131 33.852,-128.499 36.502,-50.508 41.967,-116.571 14.262,-172.404 -1.019,-2.068 -1.639,-3.216 -1.639,-3.216 -27.63,-49.991 -25.874,-100.358 5.164,-149.803 23.633,-37.649 55.789,-60.402 56.112,-60.628 69.153,-47.329 55.917,-135.627 55.318,-139.363 -5.953,-33.172 -0.557,-61.94 16.001,-85.703 34.006,-48.801 103.757,-61.7 104.457,-61.824 0.401,-0.072 0.796,-0.165 1.185,-0.284 72.651,-21.785 91.27,-86.068 92.028,-88.794 0.065,-0.234 0.122,-0.469 0.171,-0.709 9.718,-47.484 35.357,-82.091 76.202,-102.858 3.544,-1.8 5.774,-5.437 5.777,-9.412 0.002,-3.974 -2.226,-7.61 -5.768,-9.416 C 122.83,20.337 68.545,0 0,0"
             style="fill:#f6921e;fill-opacity:1;fill-rule:nonzero;stroke:none"
             id="path138" /></g><g
           id="g140"
           transform="translate(904.4771,2907.7202)"><path
             d="m 0,0 c -34.158,0 -63.962,-10.927 -98.473,-23.579 -6.365,-2.333 -12.947,-4.746 -19.747,-7.16 -14.66,-5.201 -28.365,-7.731 -41.897,-7.731 -17.88,0 -32.235,4.366 -46.117,8.589 -1.035,0.31 -1.967,0.597 -2.876,0.884 -0.081,0.025 -0.161,0.051 -0.243,0.075 -3.763,1.139 -8.199,2.444 -12.607,3.502 -0.132,0.033 -0.263,0.065 -0.395,0.096 -6.056,1.418 -11.107,2.161 -15.883,2.336 -0.873,0.036 -1.739,0.055 -2.601,0.055 -9.464,0 -18.259,-2.333 -26.141,-6.935 -20.859,-12.149 -31.532,-32.833 -29.267,-56.739 1.052,-10.842 4.835,-21.416 11.25,-31.473 5.202,-8.17 11.37,-15.563 18.324,-21.962 9.057,-8.364 19.607,-15.18 31.325,-20.229 20.785,-8.89 38.237,-9.146 40.159,-9.146 21.929,0 37.1,-10.319 45.091,-30.671 7.068,-18.047 16.291,-33.693 27.405,-46.489 34.635,-39.829 80.713,-57.279 105.096,-64.137 7.853,-2.21 16.178,-3.782 26.99,-5.098 44.739,-5.43 51.657,-58.136 52.608,-69.024 -2.096,-12.178 -3.474,-24.395 -4.099,-36.356 -2.305,-45.17 6.027,-88.01 24.763,-127.355 13.554,-28.463 32.153,-54.434 55.282,-77.192 19.575,-19.261 35.439,-29.097 36.105,-29.507 20.183,-12.289 32.011,-31.008 36.239,-57.274 6.436,-39.838 -7.608,-80.263 -7.75,-80.667 -0.446,-1.261 -0.771,-2.561 -0.971,-3.884 -15.645,-103.619 35.788,-164.084 81.69,-196.561 44.905,-31.772 92.506,-42.766 100.488,-44.446 88.162,-26.134 95.842,-120.213 96.063,-123.299 3.737,-75.487 49.21,-127.248 128.059,-145.761 15.714,-3.674 32.422,-5.533 49.678,-5.533 9.151,0 18.631,0.524 28.179,1.557 5.646,0.609 11.409,0.917 17.117,0.916 43.254,0 79.908,-17.418 103.041,-32.028 46.032,-29.057 97.6,-46.097 149.134,-49.283 7.592,-0.475 15.281,-0.715 22.843,-0.715 70.637,0 126.594,20.965 161.096,38.553 7.081,3.61 11.538,10.887 11.533,18.836 0,7.947 -4.468,15.22 -11.553,18.822 -37.833,19.233 -61.601,51.384 -70.642,95.559 -0.098,0.477 -0.212,0.95 -0.342,1.418 -0.821,2.955 -21,72.644 -99.171,96.085 -0.778,0.234 -1.569,0.422 -2.369,0.565 -5.341,0.974 -131.643,25.318 -111.944,135.062 0.023,0.132 0.046,0.264 0.067,0.396 0.64,4.004 14.818,98.565 -59.732,149.715 -1.28,0.917 -31.864,23.084 -53.83,58.601 -28.212,45.614 -29.65,92.021 -4.275,137.931 0.029,0.052 0.083,0.153 0.111,0.204 0,0 0.688,1.269 1.827,3.581 29.429,59.309 23.618,129.542 -15.19,183.242 -17.947,24.853 -38.056,66.05 -31.912,121.136 0.778,6.978 -1.961,13.887 -7.309,18.436 -56.126,47.74 -119.006,69.046 -159.137,73.067 -8.975,0.898 -17.632,3.017 -25.735,6.299 -43.022,17.437 -60.816,63.609 -60.991,64.073 -0.094,0.258 -0.165,0.433 -0.269,0.687 -14.991,36.411 -40.293,66.677 -73.172,87.525 -29.906,18.964 -65.459,29.408 -100.108,29.408 -18.031,-10e-4 -35.378,-2.74 -51.572,-8.14 -11.17,-3.724 -22.176,-5.612 -32.709,-5.612 -34.559,0 -54.556,20.211 -54.749,20.415 -1.186,1.26 -2.522,2.369 -3.979,3.303 C 75.355,-13.279 37.789,0 0,0 m 0,-21.128 c 30.894,0 64.722,-10.432 110.403,-39.716 0,0 25.48,-27.059 70.131,-27.059 11.827,0 24.99,1.896 39.392,6.696 14.124,4.71 29.333,7.055 44.879,7.056 60.124,0.004 125.424,-35.041 153.753,-103.849 0,0 20.151,-54.933 72.866,-76.299 9.454,-3.829 19.939,-6.576 31.56,-7.738 38.48,-3.856 97.005,-25.143 147.554,-68.139 -6.999,-62.75 16.638,-109.338 35.786,-135.854 34.069,-47.142 39.219,-109.417 13.363,-161.525 -0.924,-1.875 -1.479,-2.905 -1.479,-2.905 -71.307,-129.014 64.521,-224.091 64.521,-224.091 64.52,-44.157 50.945,-129.04 50.945,-129.04 -23.769,-132.421 129.04,-159.597 129.04,-159.597 67.901,-20.362 84.883,-81.502 84.883,-81.502 12.016,-58.71 45.505,-91.723 81.766,-110.157 -35.406,-18.048 -87.094,-36.249 -151.501,-36.249 -7.033,0 -14.207,0.217 -21.539,0.674 -49.546,3.064 -97.19,19.57 -139.156,46.059 -25.718,16.243 -66.169,35.291 -114.321,35.294 -6.339,0 -12.803,-0.33 -19.393,-1.039 -8.616,-0.934 -17.27,-1.435 -25.905,-1.435 -15.084,0 -30.119,1.531 -44.848,4.973 -46.905,11.014 -107.675,41.65 -111.795,126.4 0,0 -6.787,112.058 -112.059,142.615 0,0 -193.56,37.345 -166.384,217.33 0,0 16.058,45.452 8.689,91.062 -4.358,27.071 -16.929,54.194 -46.033,71.915 0,0 -14.262,8.769 -32.353,26.569 -32.933,32.406 -78.544,94.707 -73.764,188.385 0.608,11.62 1.981,23.742 4.252,36.314 0,0 -3.195,82.875 -71.307,91.141 -8.029,0.978 -16.031,2.272 -23.822,4.464 -22.818,6.417 -64.045,22.21 -94.866,57.653 -10.3,11.858 -17.959,25.723 -23.69,40.355 -6.18,15.741 -23.082,44.079 -64.757,44.079 0,0 -14.447,0 -31.798,7.421 -8.214,3.539 -17.088,8.715 -25.381,16.374 -5.282,4.86 -10.326,10.723 -14.816,17.774 -4.278,6.709 -7.263,14.209 -8.028,22.106 -1.057,11.145 1.426,26.331 18.883,36.499 4.984,2.909 10.077,4.053 15.49,4.053 0.582,0 1.166,-0.013 1.756,-0.039 3.803,-0.132 7.738,-0.818 11.911,-1.796 0.079,-0.026 0.132,-0.053 0.211,-0.053 3.645,-0.871 7.474,-1.98 11.488,-3.196 1.004,-0.316 2.034,-0.633 3.09,-0.95 14.374,-4.372 31.271,-9.503 52.266,-9.503 14.263,0 30.417,2.367 48.965,8.948 42.635,15.134 74.871,29.522 111.152,29.522"
             style="fill:#231f20;fill-opacity:1;fill-rule:nonzero;stroke:none"
             id="path142" /></g><g
           id="g144"
           transform="translate(1293.3232,1890.165)"><path
             d="m 0,0 c 105.271,-30.557 112.059,-142.615 112.059,-142.615 4.12,-84.75 64.89,-115.386 111.795,-126.399 14.729,-3.443 29.764,-4.974 44.847,-4.974 8.636,0 17.29,0.502 25.905,1.435 6.591,0.709 13.055,1.039 19.394,1.039 48.151,-0.003 88.603,-19.05 114.321,-35.294 41.966,-26.489 89.61,-42.995 139.156,-46.058 7.332,-0.458 14.505,-0.675 21.539,-0.675 64.406,0 116.095,18.201 151.501,36.249 -36.262,18.435 -69.75,51.447 -81.767,110.157 0,0 -16.981,61.14 -84.882,81.502 0,0 -152.809,27.176 -129.04,159.597 0,0 13.574,84.883 -50.946,129.04 0,0 -135.827,95.078 -64.52,224.091 0,0 0.555,1.03 1.479,2.905 25.856,52.107 20.706,114.383 -13.363,161.525 -19.148,26.516 -42.785,73.104 -35.787,135.854 -50.548,42.996 -109.073,64.283 -147.553,68.139 -11.621,1.162 -22.106,3.909 -31.56,7.738 11.697,-51.438 32.265,-119.693 67.195,-182.567 22.354,-40.238 32.695,-87.691 40.904,-132.543 9.913,-54.156 -6.868,-102.019 -2.727,-157.215 4.053,-54.036 17.67,-112.344 -7.797,-162.897 C 172.307,72.758 123.773,40.896 62.012,63.32 32.204,74.144 6.646,94.204 -16.42,115.966 c -53.947,50.897 -128.603,113.978 -141.275,192.425 7.368,-45.61 -8.689,-91.06 -8.689,-91.06 C -193.561,37.345 0,0 0,0"
             style="fill:#f37722;fill-opacity:1;fill-rule:nonzero;stroke:none"
             id="path146" /></g><g
           id="g148"
           transform="translate(991.0552,2804.1851)"><path
             d="m 0,0 c -4.233,-21.315 -37.041,-32.761 -73.277,-25.564 -36.236,7.196 -62.18,30.31 -57.946,51.626 4.233,21.315 37.04,32.761 73.277,25.564 C -21.71,44.429 4.233,21.316 0,0"
             style="fill:#fabe78;fill-opacity:1;fill-rule:nonzero;stroke:none"
             id="path150" /></g><g
           id="g152"
           transform="translate(1177.3428,3223.9438)"><path
             d="m 0,0 c -106.917,0.001 -175.45,49.279 -198.189,142.507 -37.362,153.191 23.481,250.814 63.075,295.373 4.527,5.094 10.717,7.898 17.432,7.898 6.328,0 12.486,-2.575 16.895,-7.064 4.338,-4.417 6.664,-10.325 6.551,-16.636 -1.883,-104.726 90.17,-148.512 94.09,-150.325 103.945,-49.235 137.432,-112.16 147.237,-156.286 10.78,-48.504 -3.727,-84.969 -4.348,-86.498 -1.134,-2.78 -3.394,-4.946 -6.219,-5.958 C 133.903,22.071 71.513,0 0.004,0 Z"
             style="fill:#ef4136;fill-opacity:1;fill-rule:nonzero;stroke:none"
             id="path154" /></g><g
           id="g156"
           transform="translate(1059.6602,3680.2856)"><path
             d="m 0,0 c -9.633,0 -18.865,-4.171 -25.328,-11.445 -40.968,-46.106 -103.946,-147.025 -65.442,-304.893 13.423,-55.035 42.082,-95.771 85.179,-121.079 33.324,-19.567 74.799,-29.489 123.273,-29.489 73.331,0 137.398,22.666 140.089,23.631 5.65,2.025 10.172,6.358 12.437,11.917 0.673,1.653 16.365,41.087 4.878,92.775 -6.669,30.015 -21.05,58.145 -42.742,83.609 -26.243,30.807 -63.313,57.684 -110.18,79.885 -0.081,0.038 -0.161,0.075 -0.242,0.112 -0.165,0.078 -23.289,11.02 -45.594,34.205 -28.81,29.946 -43.049,65.717 -42.319,106.319 0.165,9.168 -3.237,17.773 -9.577,24.228 C 18.05,-3.727 9.145,0 0,0 m 0,-21.128 c 6.628,0 13.025,-5.106 12.884,-12.945 -2.035,-113.237 100.235,-160.111 100.235,-160.111 193.549,-91.681 137.522,-229.203 137.522,-229.203 0,0 -62.458,-22.391 -132.959,-22.391 -76.065,0 -161.491,26.067 -187.925,134.446 -36.446,149.428 23.6,244.09 60.709,285.853 2.672,3.008 6.133,4.351 9.534,4.351"
             style="fill:#231f20;fill-opacity:1;fill-rule:nonzero;stroke:none"
             id="path158" /></g><g
           id="g160"
           transform="translate(879.9258,3046.2651)"><path
             d="m 0,0 c -6.272,0 -12.292,3 -16.102,8.024 -3.753,4.948 -4.928,11.274 -3.225,17.355 48.763,174.088 163.789,210.629 251.699,210.629 93.4,0 173.88,-39.702 177.26,-41.392 3.91,-1.955 6.212,-6.116 5.791,-10.467 C 405.262,79.148 338.033,21.318 226.135,21.318 h -0.013 c -28.206,10e-4 -57.988,3.688 -88.517,10.957 -12.938,3.081 -25.676,4.642 -37.858,4.642 C 59.01,36.917 30.081,19.485 12.985,4.862 9.267,1.682 4.776,0 0,0"
             style="fill:#ef4136;fill-opacity:1;fill-rule:nonzero;stroke:none"
             id="path162" /></g><g
           id="g164"
           transform="translate(1112.2969,3292.8379)"><path
             d="M 0,0 V -21.128 0 c -91.563,0.001 -211.322,-37.878 -261.871,-218.343 -2.603,-9.293 -0.788,-18.984 4.98,-26.59 5.795,-7.641 14.961,-12.203 24.519,-12.203 7.225,0 14.275,2.627 19.852,7.397 15.742,13.465 42.382,29.517 79.896,29.519 11.363,0 23.273,-1.465 35.411,-4.355 31.335,-7.461 61.94,-11.244 90.964,-11.244 52.466,0 96.043,12.296 129.522,36.544 40.78,29.537 64.43,75.238 70.294,135.834 0.843,8.702 -3.762,17.023 -11.581,20.933 C 178.515,-40.772 95.865,-0.001 0,0 M 0,-21.128 C 91.98,-21.129 172.538,-61.406 172.538,-61.406 161.153,-179.047 79.095,-214.69 -6.249,-214.69 c -29.203,0 -58.801,4.176 -86.07,10.669 -14.458,3.442 -27.883,4.93 -40.306,4.929 -43.327,-0.002 -74.364,-18.114 -93.628,-34.591 -1.89,-1.616 -4.036,-2.325 -6.119,-2.325 -5.736,0 -11.001,5.373 -9.154,11.966 C -196.041,-61.657 -92.273,-21.127 0,-21.128"
             style="fill:#231f20;fill-opacity:1;fill-rule:nonzero;stroke:none"
             id="path166" /></g><g
           id="g168"
           transform="translate(2373.0762,1513.3896)"><path
             d="m 0,0 c -26.178,0 -54.829,5.765 -85.154,17.133 -0.409,0.152 -0.808,0.33 -1.195,0.534 -0.35,0.184 -36.791,18.893 -80.68,18.893 -17.814,0 -34.534,-3.078 -49.7,-9.149 -0.92,-0.369 -1.888,-0.606 -2.875,-0.704 -0.258,-0.026 -6.469,-0.635 -16.561,-0.635 -21.577,0 -63.732,2.843 -103.611,21.882 -49.23,23.506 -80.011,63.593 -91.488,119.145 -1.429,4.769 -17.993,55.755 -77.12,73.763 -8.128,1.547 -79.925,16.583 -117.444,70.428 -19.881,28.531 -26.44,62.62 -19.495,101.315 0.015,0.112 4.941,32.944 -7.152,66.611 -7.826,21.895 -21.067,39.334 -39.359,51.844 -1.552,1.086 -36.101,25.536 -61.984,66.768 -34.933,55.652 -36.947,114.836 -5.819,171.153 -0.001,0 0.48,0.903 1.249,2.466 24.221,48.809 19.445,106.531 -12.45,150.666 -24.371,33.76 -59.814,104.889 -23.381,202.008 0.088,0.232 0.183,0.462 0.287,0.688 0.336,0.738 33.584,75.062 -4.351,110.092 -45.663,42.154 -54.446,95.828 -62.942,147.734 -9.201,56.219 -17.891,109.319 -74.049,142.928 -18.601,11.143 -40.137,20.215 -62.936,29.821 -46.282,19.499 -94.142,39.661 -121.368,79.769 -10.171,14.954 -16.846,32.003 -19.835,50.666 -2.299,14.402 1.09,30.047 10.36,47.832 0.337,0.679 0.787,1.515 1.237,2.318 2.337,4.344 5.201,9.109 8.669,14.406 15.029,22.873 35.807,36.908 61.762,41.732 7.108,1.327 14.814,2 22.897,2 11.388,0 23.835,-1.294 38.05,-3.957 4.754,-0.895 9.604,-1.33 14.831,-1.33 14.247,0 28.462,3.248 43.511,6.688 15.652,3.576 31.836,7.274 48.718,7.274 0.617,0 1.232,0 1.851,-0.014 35.527,-0.587 67.337,-15.436 91.998,-42.94 13.543,-15.096 29.792,-26.022 46.988,-31.598 32.419,-10.512 65.659,-11.417 100.85,-12.377 38.263,-1.042 77.83,-2.12 116.481,-16.562 52.841,-19.743 94.397,-54.743 117.013,-98.554 6.939,-13.439 12.071,-27.653 17.032,-41.398 6.828,-18.91 13.275,-36.772 23.919,-52.264 21.846,-31.795 54.08,-43.204 88.204,-55.282 24.182,-8.559 49.184,-17.408 71.088,-33.96 55.165,-41.685 88.74,-100.371 92.111,-161.01 0.118,-1.874 3.492,-47.26 48.942,-83.523 4.444,-3.525 9.078,-6.824 13.752,-9.791 4.213,-2.264 37.004,-20.456 67.01,-53.379 42.386,-46.505 58.518,-100.08 46.652,-154.932 -0.08,-0.374 -0.181,-0.742 -0.302,-1.105 -0.978,-2.994 -23.372,-74.552 46.667,-120.234 80.711,-52.64 104.124,-147.754 69.59,-282.701 -5.001,-19.575 -3.527,-40.114 4.16,-57.829 9.341,-21.579 22.474,-39.398 35.174,-56.631 26.459,-35.899 53.818,-73.022 37.559,-137.816 C 240.403,271.156 225.506,245.435 204.282,224.5 189.68,210.083 164.571,180.967 160.554,147.998 158.941,134.682 155.82,122.212 151.281,110.946 134.595,69.51 92.745,0 0,0"
             style="fill:#f6921e;fill-opacity:1;fill-rule:nonzero;stroke:none"
             id="path170" /></g><g
           id="g172"
           transform="translate(1483.7017,3326.7373)"><path
             d="m 0,0 h -0.001 c -18.073,-0.001 -34.847,-3.834 -51.068,-7.541 -14.454,-3.303 -28.105,-6.422 -41.161,-6.422 -4.566,0 -8.774,0.374 -12.868,1.145 -14.881,2.788 -27.962,4.141 -40.011,4.141 -8.733,0 -17.093,-0.733 -24.847,-2.18 -28.877,-5.367 -51.974,-20.945 -68.636,-46.299 -3.618,-5.528 -6.609,-10.502 -9.163,-15.232 -0.467,-0.838 -0.931,-1.705 -1.368,-2.572 -10.299,-19.813 -14.011,-37.553 -11.348,-54.23 3.237,-20.214 10.482,-38.7 21.538,-54.954 28.973,-42.679 78.296,-63.459 125.995,-83.555 22.447,-9.456 43.649,-18.388 61.606,-29.147 51.957,-31.094 59.881,-79.511 69.056,-135.572 8.375,-51.171 17.867,-109.169 66.204,-153.792 31.744,-29.313 2.2,-97.289 1.893,-97.967 -0.194,-0.427 -0.392,-0.902 -0.556,-1.341 -38.165,-101.732 -0.904,-176.427 24.704,-211.896 29.596,-40.953 34.026,-94.505 11.567,-139.767 -0.598,-1.213 -0.992,-1.969 -1.129,-2.231 -33.011,-59.837 -30.866,-122.671 6.202,-181.724 27.007,-43.024 63.249,-68.67 64.779,-69.741 0.063,-0.044 0.126,-0.087 0.189,-0.13 16.413,-11.225 28.314,-26.927 35.371,-46.667 10.727,-29.868 6.967,-59.222 6.647,-61.532 -7.364,-41.424 -0.203,-78.056 21.284,-108.892 38.991,-55.955 112.204,-72.399 123.534,-74.647 51.937,-16.071 67.591,-60.293 69.461,-66.169 12.109,-57.874 45.693,-101.434 97.173,-126.013 41.755,-19.935 85.689,-22.912 108.161,-22.912 10.435,0 16.91,0.617 17.613,0.688 1.973,0.197 3.909,0.671 5.75,1.407 13.912,5.568 29.312,8.391 45.776,8.391 41.103,-10e-4 75.483,-17.533 75.824,-17.71 0.743,-0.383 1.559,-0.75 2.341,-1.043 31.515,-11.815 61.413,-17.806 88.863,-17.806 43.82,0 81.637,14.804 112.405,43.998 25.478,24.178 40.533,53.35 48.676,73.564 4.883,12.123 8.235,25.495 9.96,39.741 3.63,29.772 27.038,56.793 40.667,70.247 22.593,22.286 38.467,49.717 45.898,79.325 17.474,69.625 -11.389,108.785 -39.3,146.656 -12.35,16.757 -25.121,34.084 -33.982,54.553 -6.762,15.589 -8.046,33.706 -3.619,51.027 15.198,59.391 19.421,112.036 12.55,156.466 -9.267,59.931 -38.407,106.258 -86.607,137.694 -26.832,17.501 -42.066,41.033 -45.278,69.942 -2.392,21.528 2.809,37.945 2.862,38.105 0.242,0.726 0.444,1.463 0.605,2.211 12.619,58.334 -4.383,115.142 -49.17,164.281 -30.319,33.268 -63.577,52.17 -69.45,55.372 -4.273,2.726 -8.502,5.744 -12.58,8.979 -41.137,32.822 -44.771,73.693 -44.94,75.939 -1.857,33.015 -12.026,65.204 -30.225,95.671 -16.481,27.592 -39.324,52.854 -66.058,73.056 -23.206,17.536 -48.993,26.662 -73.929,35.488 -33.87,11.989 -63.122,22.342 -83.025,51.307 -9.875,14.373 -16.099,31.613 -22.689,49.867 -5.077,14.064 -10.327,28.607 -17.581,42.659 -23.822,46.145 -67.399,82.939 -122.703,103.602 -40.301,15.058 -80.763,16.161 -119.892,17.227 -34.408,0.938 -66.908,1.824 -97.878,11.866 -15.425,5.002 -30.083,14.894 -42.388,28.608 C 75.037,-16.716 40.566,-0.653 2.026,-0.017 1.344,-0.005 0.675,0 0,0 m 0,-21.128 c 0.56,0 1.116,-0.005 1.677,-0.014 33.567,-0.554 62.566,-15.186 84.302,-39.43 14.073,-15.685 31.553,-28.096 51.596,-34.595 70.585,-22.887 145.759,-2.208 216.892,-28.786 46.441,-17.353 88.581,-49.45 111.324,-93.503 15.867,-30.735 22.042,-66.29 41.63,-94.799 39.994,-58.205 110.781,-53.263 161.63,-91.687 47.939,-36.225 84.502,-91.475 87.932,-153.169 0,0 2.852,-51.263 52.9,-91.195 4.595,-3.644 9.587,-7.236 15.028,-10.669 0,0 135.827,-71.308 108.651,-196.942 0,0 -27.149,-81.501 50.919,-132.42 94.918,-61.906 89.425,-176.288 65.128,-271.233 -5.494,-21.498 -4.12,-44.317 4.7,-64.653 29.923,-69.115 94.575,-98.43 72.18,-187.671 -6.629,-26.41 -20.864,-50.311 -40.249,-69.432 -16.481,-16.269 -42.442,-47.011 -46.799,-82.743 -1.427,-11.78 -4.147,-23.373 -8.584,-34.387 -15.003,-37.247 -54.158,-104.327 -141.482,-104.327 -23.506,0 -50.487,4.854 -81.447,16.461 0,0 -38.35,20.096 -85.581,20.097 -17.174,0 -35.52,-2.656 -53.627,-9.903 0,0 -5.829,-0.583 -15.512,-0.583 -42.604,0 -159.937,11.268 -184.836,133.004 0,0 -16.982,61.14 -84.882,81.502 0,0 -152.81,27.176 -129.041,159.597 0,0 5.626,35.205 -7.606,72.046 -7.289,20.39 -20.362,41.28 -43.339,56.994 0,0 -135.828,95.077 -64.52,224.091 0,0 0.554,1.03 1.479,2.905 25.855,52.108 20.705,114.383 -13.364,161.525 -24.482,33.911 -56.333,100.729 -22.053,192.108 0,0 37.345,81.502 -6.787,122.253 -92.119,85.041 -25.539,224.223 -138.733,291.965 -57.442,34.413 -142.694,50.048 -180.989,106.46 -8.874,13.047 -15.239,28.259 -18.144,46.403 -2.218,13.892 2.482,28.206 9.296,41.279 0.344,0.686 0.713,1.373 1.083,2.034 2.588,4.806 5.441,9.428 8.293,13.786 14.631,22.263 33.541,33.171 54.854,37.133 6.765,1.262 13.776,1.821 20.972,1.821 11.625,0 23.735,-1.46 36.101,-3.776 5.631,-1.061 11.223,-1.511 16.778,-1.511 30.96,0 60.934,13.962 92.23,13.964"
             style="fill:#231f20;fill-opacity:1;fill-rule:nonzero;stroke:none"
             id="path174" /></g><g
           id="g176"
           transform="translate(2610.1904,1814.8438)"><path
             d="m 0,0 c -6.629,-26.41 -20.864,-50.312 -40.249,-69.433 -16.48,-16.268 -42.441,-47.01 -46.799,-82.743 -1.427,-11.779 -4.146,-23.373 -8.584,-34.386 -19.041,-47.275 -76.959,-142.589 -222.929,-87.867 0,0 -71.307,37.37 -139.208,10.195 0,0 -169.791,-16.983 -200.348,132.421 0,0 -16.982,61.139 -84.882,81.501 0,0 -152.81,27.176 -129.041,159.597 0,0 5.626,35.205 -7.606,72.047 157.881,-102.312 387.28,-20.256 429.246,182.997 15.318,74.213 42.706,156.666 91.088,230.535 56.254,85.86 58.315,184.634 42.707,268.724 4.594,-3.645 9.586,-7.236 15.027,-10.67 0,0 135.827,-71.308 108.651,-196.941 0,0 -27.149,-81.502 50.919,-132.421 C -47.09,461.65 -52.583,347.268 -76.88,252.323 -82.374,230.825 -81,208.007 -72.18,187.671 -42.257,118.556 22.396,89.24 0,0"
             style="fill:#f37722;fill-opacity:1;fill-rule:nonzero;stroke:none"
             id="path178" /></g><g
           id="g180"
           transform="translate(1902.1143,3078.271)"><path
             d="m 0,0 c -15.102,-21.344 -56.76,-17.834 -93.045,7.839 -36.285,25.674 -53.457,63.789 -38.355,85.134 15.102,21.344 56.76,17.834 93.045,-7.84 C -2.07,59.459 15.103,21.344 0,0"
             style="fill:#fabe78;fill-opacity:1;fill-rule:nonzero;stroke:none"
             id="path182" /></g><g
           id="g184"
           transform="translate(2167.9287,2767.3726)"><path
             d="m 0,0 c -24.524,-21.333 -73.806,-4.83 -110.072,36.862 -36.268,41.692 -45.787,92.784 -21.262,114.117 24.524,21.334 73.806,4.83 110.072,-36.861 C 15.006,72.426 24.525,21.333 0,0"
             style="fill:#fabe78;fill-opacity:1;fill-rule:nonzero;stroke:none"
             id="path186" /></g><g
           id="g188"
           transform="translate(2595.332,1664.8389)"><path
             d="m 0,0 c -75.311,0 -143.45,20.87 -202.525,62.027 -94.869,66.096 -147.758,161.675 -152.951,276.407 -4.83,106.738 33.385,224.191 107.605,330.722 95.491,137.058 248.949,222.202 400.486,222.202 69.779,0 133.665,-18.816 184.755,-54.411 C 404.159,790.414 451.458,704.997 470.557,596.43 495.401,455.192 467.134,305.458 396.786,205.661 357.467,149.886 297.807,98.633 228.795,61.35 154.508,21.213 75.391,0 0,0"
             style="fill:#fee290;fill-opacity:1;fill-rule:nonzero;stroke:none"
             id="path190" /></g><g
           id="g192"
           transform="translate(2747.9844,2566.7603)"><path
             d="M 0,0 V -21.128 L -0.005,0 C -73.618,-0.007 -149.959,-20.129 -220.808,-58.191 -295,-98.048 -360.142,-156.327 -409.19,-226.727 c -75.541,-108.425 -114.426,-228.191 -109.491,-337.238 2.578,-56.978 16.805,-109.918 42.285,-157.35 26.776,-49.842 65.527,-92.654 115.178,-127.247 60.882,-42.417 131.053,-63.925 208.565,-63.925 77.139,0 157.993,21.654 233.818,62.619 70.42,38.046 131.363,90.437 171.604,147.522 71.91,102.012 100.855,254.779 75.541,398.685 -19.59,111.357 -68.44,199.202 -137.552,247.354 C 137.886,-19.471 71.923,0 0,0 m -0.037,-21.128 c 65.818,0.006 127.945,-17.142 178.717,-52.515 157.545,-109.764 183.9,-436.253 56.82,-616.53 -76.156,-108.035 -232.801,-201.185 -388.153,-201.185 -68.036,0 -135.795,17.847 -196.487,60.132 -193.12,134.549 -188.467,383.22 -42.714,592.421 98.782,141.783 253.4,217.663 391.817,217.677"
             style="fill:#231f20;fill-opacity:1;fill-rule:nonzero;stroke:none"
             id="path194" /></g><g
           id="g196"
           transform="translate(2525.459,1698.7334)"><path
             d="m 0,0 c -67.132,0 -129.181,22.118 -184.423,65.736 -81.389,64.266 -120.2,156.855 -112.238,267.759 7.373,102.703 55.912,215.595 136.675,317.88 103.671,131.294 255.496,212.856 396.228,212.856 65.631,0 123.647,-18.416 167.77,-53.256 C 471.817,757.436 508.588,663.263 504.895,552.604 501.108,439.115 456.603,322.89 379.577,225.338 266.503,82.132 128.151,0 0,0"
             style="fill:#fff3d2;fill-opacity:1;fill-rule:nonzero;stroke:none"
             id="path198" /></g><g
           id="g200"
           transform="translate(2761.7314,2573.5278)"><path
             d="M 0,0 V -21.128 L -0.007,0 c -68.547,-0.006 -141.741,-19.297 -211.695,-55.787 -73.029,-38.094 -139.715,-93.796 -192.847,-161.087 -82.061,-103.927 -131.398,-218.875 -138.922,-323.668 -3.953,-55.058 3.447,-106.321 21.992,-152.365 19.61,-48.682 51.315,-90.551 94.237,-124.441 57.153,-45.128 121.404,-68.01 190.968,-68.01 131.406,0 272.778,83.597 387.869,229.355 39.882,50.509 71.246,105.976 93.222,164.861 20.942,56.111 32.503,112.836 34.365,168.599 3.805,114.05 -34.427,211.373 -104.895,267.014 C 128.28,-19.202 68.013,0 0,0 m -0.03,-21.128 c 61.546,0.005 117.738,-16.646 161.224,-50.983 134.355,-106.086 132.696,-369.586 -26.181,-570.799 -107.221,-135.792 -242.461,-221.32 -371.287,-221.32 -62.065,0 -122.622,19.836 -177.875,63.464 -164.693,130.041 -132.695,369.587 26.182,570.799 107.453,136.087 259.331,208.827 387.937,208.839"
             style="fill:#231f20;fill-opacity:1;fill-rule:nonzero;stroke:none"
             id="path202" /></g><g
           id="g204"
           transform="translate(2550.6855,1847.6494)"><path
             d="m 0,0 c -19.171,0 -38.496,2.256 -57.442,6.704 -58.939,13.84 -109.551,47.511 -142.515,94.811 -33.212,47.654 -44.572,103.405 -31.992,156.988 23.958,102.032 132.02,188.231 235.974,188.231 14.573,0 29.021,-1.657 42.943,-4.926 C 170.47,412.81 236.5,263.562 210.897,154.519 189.531,63.541 102.809,0 0,0"
             style="fill:#f6921e;fill-opacity:1;fill-rule:nonzero;stroke:none"
             id="path206" /></g><g
           id="g208"
           transform="translate(2554.7266,2304.9482)"><path
             d="M 0,0 V -21.128 L -0.002,0 h -0.017 c -53.965,-0.004 -109.701,-21.355 -156.937,-60.119 -45.124,-37.03 -77.679,-86.696 -89.317,-136.262 -13.277,-56.541 -1.341,-115.297 33.608,-165.443 34.457,-49.442 87.29,-84.619 148.767,-99.055 19.737,-4.634 39.877,-6.984 59.858,-6.984 107.737,0 198.689,66.892 221.179,162.669 13.213,56.271 3.132,123.922 -26.967,180.967 C 157.157,-61.653 105.723,-19.384 45.342,-5.207 30.63,-1.751 15.374,0 0,0 m -0.017,-21.128 c 13.516,0.001 27.071,-1.487 40.53,-4.647 116.607,-27.381 180.634,-169.919 156.056,-274.589 -20.673,-88.047 -104.957,-146.37 -200.608,-146.37 -18.06,0 -36.511,2.076 -55.03,6.424 -116.608,27.38 -191.213,134.429 -166.636,239.099 21.741,92.59 122.102,180.074 225.688,180.083"
             style="fill:#231f20;fill-opacity:1;fill-rule:nonzero;stroke:none"
             id="path210" /></g><g
           id="g212"
           transform="translate(2716.6797,2033.9888)"><path
             d="M 0,0 C -21.709,-92.454 -122.804,-147.796 -225.802,-123.612 -328.8,-99.427 -394.697,-4.873 -372.988,87.581 -351.279,180.034 -240.841,266.725 -137.843,242.54 -34.845,218.355 21.708,92.454 0,0"
             style="fill:#fbae17;fill-opacity:1;fill-rule:nonzero;stroke:none"
             id="path214" /></g><g
           id="g216"
           transform="translate(2617.457,2198.4146)"><path
             d="m 0,0 c 0,-25.317 -34.89,-45.84 -77.929,-45.84 -43.039,0 -77.929,20.523 -77.929,45.84 0,25.317 34.89,45.841 77.929,45.841 C -34.89,45.841 0,25.317 0,0"
             style="fill:#fddfa2;fill-opacity:1;fill-rule:nonzero;stroke:none"
             id="path218" /></g><g
           id="g220"
           transform="translate(940.7568,1296.168)"><path
             d="m 0,0 c -4.579,25.467 -3.036,51.786 5.479,76.221 15.906,45.643 75.423,123.018 177.164,42.792 271.785,-214.314 726.795,-318.509 1154.6,-194.33 172.968,50.207 235.708,-91.976 119.189,-203.93 -224.56,-215.762 -354.507,-143.399 -543.829,-179.179 -34.972,-6.613 -56.192,-3.385 -34.603,-33.606 12.378,-17.327 34.127,-24.729 54.441,-31.121 58.243,-18.326 160.323,-15.048 160.344,-100.611 0,-7.494 -1.072,-15.128 -4.393,-21.845 -29.699,-60.08 -154.066,-47.545 -206.355,-40.449 C 513.248,-636.005 71.903,-399.942 0,0"
             style="fill:#161414;fill-opacity:1;fill-rule:nonzero;stroke:none"
             id="path222" /></g><g
           id="g224"
           transform="translate(2051.376,2964.3223)"><path
             d="m 0,0 c 14.764,0.238 29.58,0.37 44.448,0.37 137.572,0 270.6,-10.564 396.365,-30.24 15.372,4.358 31.033,8.135 46.878,11.357 19.782,4.04 39.907,7.21 60.269,9.534 -16.929,3.433 -34.017,6.708 -51.236,9.824 C 354.268,26.542 202.25,40.408 44.448,40.408 11.99,40.408 -20.229,39.827 -52.16,38.665 -39.271,22.581 -22.237,8.082 0,0 m 1455.151,-549.966 c -21.498,41.384 -48.673,81.422 -81.079,119.823 19.834,-40.276 36.103,-82.374 48.569,-125.687 7.526,-26.119 13.68,-52.688 18.38,-79.521 12.678,-40.909 19.254,-82.901 19.254,-125.739 0,-38.427 -5.282,-76.193 -15.503,-113.062 -13.971,-50.47 -37.132,-99.329 -68.587,-146.049 -57.39,-85.305 -142.298,-163.531 -248.996,-231.538 -243.371,-155.213 -600.067,-257.367 -1001.45,-269.57 -26.885,-0.844 -54.009,-1.241 -81.291,-1.241 -781.953,0 -1415.852,340.904 -1415.852,761.46 0,151.542 82.347,292.784 224.302,411.445 -3.935,0.713 -7.817,1.585 -11.673,2.667 -8.583,2.404 -19.781,6.154 -32.036,11.779 -147.527,-127.561 -233.123,-279.446 -233.123,-442.476 0,-451.827 657.43,-818.11 1468.382,-818.11 28.286,0 56.413,0.449 84.302,1.347 598.746,18.857 1101.545,237.613 1296.849,538.373 56.438,86.889 87.206,180.645 87.206,278.39 0,79.019 -20.124,155.424 -57.654,227.709 M -536.444,-26.12 c -115.836,-27.81 -223.959,-63.727 -322.073,-106.406 18.91,-2.827 37.793,-9.033 55.382,-18.567 84.46,33.99 176.209,63.015 273.742,86.309 -2.139,13.047 -4.278,26.014 -7.051,38.664"
             style="fill:#231f20;fill-opacity:1;fill-rule:nonzero;stroke:none"
             id="path226" /></g></g></g></g></svg>
